<?xml version="1.0" encoding="utf-8"?>
<!-- Generator: Adobe Illustrator 16.0.0, SVG Export Plug-In . SVG Version: 6.00 Build 0)  -->
<!DOCTYPE svg PUBLIC "-//W3C//DTD SVG 1.1//EN" "http://www.w3.org/Graphics/SVG/1.1/DTD/svg11.dtd">
<svg version="1.1" id="Calque_1" xmlns="http://www.w3.org/2000/svg" xmlns:xlink="http://www.w3.org/1999/xlink" x="0px" y="0px"
	 width="500px" height="150px" viewBox="0 0 500 150" enable-background="new 0 0 500 150" xml:space="preserve">
<path fill="#58B547" d="M117.315,58.664c0.165-2.299-0.696-4.368-3.008-5.188c-0.568,0.038-1.131,0.098-1.682,0.154
	c-1.481,1.198-2.869,2.521-4.08,3.972c-0.057,0.02-0.115,0.045-0.168,0.088c-0.217,0.176-0.803,0.639-1.097,0.42
	c-0.144-2.143-0.281-4.285-0.304-6.435c-0.046-4.448-6.949-4.452-6.902,0c0.022,2.12,0.157,4.234,0.298,6.348
	c-0.166,0.134-0.328,0.272-0.493,0.407c-0.084,0.004-0.168,0.012-0.252,0.004c-1.625-1.411-3.386-2.646-5.246-3.738
	c-0.863-0.002-1.749,0.08-2.44,0.467c-0.928,0.519-2.311,1.864-1.928,3.091c0.31,0.996,0.868,1.858,1.423,2.725
	c0.025,0.026,0.056,0.048,0.079,0.075c7.875,5.172,11.669,13.524,13.821,23.25c1.352,6.111,1.688,12.152,1.412,18.4
	c-0.284,6.432-1.07,13.441-3.789,19.355c-1.844,4.015,4.103,7.524,5.96,3.484c5.979-13.009,5.99-29.302,3.072-43.074
	c-0.444-2.096-0.98-4.188-1.617-6.248c-0.12-0.772-0.178-1.553-0.158-2.332c0.072-0.338,0.097-0.686,0.079-1.031
	c0.024-0.199,0.047-0.398,0.083-0.598c0.003-0.018-0.002-0.033-0.001-0.05c0.046-0.268,0.073-0.549,0.049-0.864
	C110.042,66.391,113.18,61.826,117.315,58.664z"/>
<path fill="#6275B2" d="M109.176,36.256c-0.135-0.492-0.352-0.953-0.63-1.373c-0.102-0.283-0.221-0.561-0.374-0.821
	c-0.655-1.118-1.738-1.954-2.988-2.298c-1.213-0.334-2.786-0.229-3.853,0.504c-1.125,0.773-1.777,1.354-2.56,2.442
	c-0.307,0.427-0.516,0.971-0.641,1.462c-0.359,1.416-0.118,2.67,0.51,3.956c0.857,1.755,2.798,2.508,4.61,2.646
	c0.805,0.062,1.662-0.123,2.433-0.367C108.28,41.583,109.92,38.96,109.176,36.256z"/>
<path fill="#58B547" d="M75.081,114.555c-12.361,0.456-28.852-3.539-38.45-12.983c-0.424-0.363-0.817-0.771-1.184-1.211
	c-0.05-0.056-0.107-0.105-0.157-0.161c-0.007-0.022-0.018-0.042-0.027-0.063c-0.207-0.262-0.402-0.534-0.589-0.817
	c-0.13-0.176-0.242-0.36-0.346-0.553c-0.461-0.782-0.842-1.629-1.152-2.508c-1.825-2.645-3.405-7.51-1.693-10.376
	c0.215-0.597,0.549-1.188,1.028-1.76c1.808-2.155,4.025-3.738,6.262-5.407c3.102-2.315,1.741-3.754-0.183-5.042
	c-0.432-0.157-0.885-0.313-1.366-0.492c-0.181-0.067-0.334-0.165-0.473-0.274c-0.346-0.044-0.629-0.174-0.849-0.363
	c-0.351-0.1-0.625-0.298-0.813-0.56c-0.208-0.128-0.407-0.267-0.586-0.422c-0.985-0.729-1.499-1.793-1.594-2.947
	c-0.124-0.743-0.098-1.515,0.073-2.246c0.002-0.091-0.005-0.182-0.001-0.272c0.092-0.2,0.189-0.396,0.282-0.595
	c0.055-0.131,0.116-0.259,0.182-0.384c0.379-0.795,0.768-1.583,1.182-2.354c0.142-0.193,0.249-0.407,0.348-0.625
	c0.824-1.488,1.695-2.936,2.608-4.317c4.293-6.497,11.727-13.435,20.169-11.946c6.305,1.112,9.001-8.523,2.658-9.643
	C35.977,31.925,20.496,60.98,18.806,81.512c-2.409,29.262,32.042,43.938,56.275,43.043
	C81.509,124.316,81.533,114.316,75.081,114.555z"/>
<path fill="#6275B2" d="M51.148,64.781c-0.056-0.096-0.13-0.172-0.191-0.262c-0.38-1.021-1.075-1.931-2.103-2.533
	c-2.063-1.208-4.873-0.715-6.371,1.125c-0.639,0.473-0.967,0.871-1.522,1.668c-0.942,1.35-0.921,3.352-0.451,4.854
	c0.362,1.157,1.144,2.453,2.298,2.988c0.47,0.219,0.947,0.422,1.432,0.605c1.306,0.492,2.989,0.168,4.159-0.49
	c0.76-0.427,1.317-1.018,1.794-1.721C51.893,69.479,52.329,66.797,51.148,64.781z"/>
<path fill="#58B547" d="M367.037,43.562c-4.838,7.115-14.503,0.319-20.369-2.083c-8.753-3.585-17.809-4.254-24.849,3.07
	c-4.467,4.648,2.596,11.729,7.071,7.072c3.572-3.719,8.186-3.253,12.751-1.633c0.089,0.061,0.179,0.154,0.269,0.258
	c0.006,0.051,0.008,0.102,0.008,0.154c-3.727,19.989-4.271,41.318-13.881,59.661c-2.988,5.706,5.643,10.761,8.635,5.047
	c9.717-18.55,10.893-39.388,14.459-59.633c0.003-0.005,0.008-0.007,0.01-0.013c0.108-0.243,0.23-0.453,0.418-0.644
	c0.144-0.146,0.422-0.152,0.66-0.168c9.1,3.619,17.674,2.456,23.453-6.043C379.31,43.26,370.641,38.264,367.037,43.562z"/>
<path fill="#6275B2" d="M355.32,28.696c0.009-0.962-0.254-1.925-0.775-2.776c-0.184-0.623-0.342-1.249-0.74-1.822
	c-0.184-0.265-0.603-0.887-0.968-1.203c-0.993-0.857-1.252-0.953-2.466-1.441c-0.78-0.313-1.684-0.355-2.516-0.369
	c-0.902,0.003-1.744,0.23-2.523,0.683c-1.234,0.723-1.77,1.723-2.299,2.988c-0.399,0.955-0.563,1.852-0.639,2.909
	c-0.116,1.59,0.664,3.007,1.65,4.168c1.041,1.224,2.518,1.526,3.994,1.719c0.057,0.011,0.113,0.019,0.169,0.032
	c2.269,1.141,5.19,0.197,6.464-1.976C355.215,30.683,355.409,29.672,355.32,28.696z"/>
<path fill="#58B547" d="M300.91,68.317c-2.262,5.342-5.242,9.228-10.936,10.921c-3.229,0.959-6.641,1.297-10.043,1.57
	c-2.586-12.209-4.772-24.472-4.609-37.021c0.33-1.482-0.213-2.674-1.158-3.448c-1.939-1.781-5.719-1.27-6.721,1.51
	c-0.041,0.098-0.084,0.192-0.119,0.296c-5.041,14.511-12.396,27.865-20.278,40.948c-1.54,0.099-3.08,0.186-4.623,0.23
	c-3.313,0.094-6.991,0.152-10.061-1.29c-3.35-1.573-4.579-5.188-5.442-8.522c-1.315-5.08-9.17-2.923-7.853,2.165
	c2.577,9.95,8.947,15.048,19.101,15.743c1.247,0.086,2.495,0.101,3.743,0.082c-1.394,2.258-2.791,4.514-4.184,6.771
	c-3.536,4.114-6.53,8.872-9.201,13.476c-0.601,1.035-0.696,2.046-0.461,2.938c-1.018,4.051,5.086,7.144,7.493,2.981
	c2.917-5.049,5.946-10.035,8.994-15.01c4.008-4.357,8.943-7.493,15.644-7.727c12.276-0.428,12.363,12.177,14.97,21.16
	c0.864,2.979,3.97,3.443,6.057,2.278c0.286,0.065,0.581,0.106,0.886,0.106c2.22,0,4.072-1.852,4.072-4.071v-4.222
	c0-0.83-0.26-1.609-0.701-2.26c-0.008-0.207-0.01-0.413-0.048-0.633c-1.087-6.197-2.433-12.365-3.781-18.533
	c4.187-0.386,8.363-0.898,12.325-2.254c6.764-2.313,11.244-7.644,13.967-14.076C309.963,67.65,302.95,63.496,300.91,68.317z
	 M257.072,82.476c-0.102,0.004-0.203,0.012-0.305,0.017c4.092-6.988,7.995-14.072,11.461-21.385
	c0.818,6.543,2.035,13.037,3.381,19.515C266.891,82.088,262,82.297,257.072,82.476z"/>
<path fill="#6275B2" d="M278.498,28.316c0-0.939-0.332-1.867-0.884-2.637c-0.214-0.701-0.577-1.354-1.101-1.879
	c-0.111-0.109-0.223-0.209-0.336-0.302c-0.481-0.642-0.984-1.12-1.708-1.615c-2.337-1.599-6.238-0.986-7.691,1.495
	c-0.898,1.534-1.157,3.414-0.884,5.129c0.184,1.154,1.025,2.371,1.551,3.414c0.672,1.331,2.402,2.313,3.886,2.229
	c1.645-0.093,2.917-0.598,4.159-1.656C277.223,31.858,278.498,30.328,278.498,28.316z"/>
<path fill="#58B547" d="M206.831,111.683c-12.361,0.456-28.852-3.539-38.45-12.983c-0.424-0.363-0.817-0.771-1.184-1.211
	c-0.05-0.056-0.107-0.105-0.157-0.161c-0.007-0.022-0.018-0.042-0.027-0.063c-0.207-0.262-0.402-0.534-0.589-0.817
	c-0.13-0.176-0.242-0.36-0.346-0.553c-0.461-0.782-0.842-1.629-1.152-2.508c-1.825-2.645-3.405-7.51-1.693-10.376
	c0.215-0.597,0.549-1.188,1.028-1.76c1.808-2.155,4.025-3.738,6.262-5.407c3.102-2.315,1.741-3.754-0.183-5.042
	c-0.432-0.157-0.885-0.313-1.366-0.492c-0.181-0.067-0.334-0.165-0.473-0.274c-0.346-0.044-0.629-0.174-0.849-0.363
	c-0.351-0.1-0.625-0.298-0.813-0.56c-0.208-0.128-0.407-0.267-0.586-0.422c-0.985-0.729-1.499-1.793-1.594-2.947
	c-0.124-0.743-0.098-1.515,0.073-2.246c0.002-0.091-0.005-0.182-0.001-0.272c0.092-0.2,0.189-0.396,0.282-0.595
	c0.055-0.131,0.116-0.259,0.182-0.384c0.379-0.795,0.768-1.583,1.182-2.354c0.142-0.193,0.249-0.407,0.348-0.625
	c0.824-1.488,1.695-2.936,2.608-4.317c4.293-6.497,11.727-13.435,20.169-11.946c6.305,1.112,9.001-8.523,2.658-9.643
	c-24.434-4.308-39.915,24.748-41.604,45.279c-2.409,29.262,32.042,43.938,56.275,43.043
	C213.259,121.444,213.283,111.444,206.831,111.683z"/>
<path fill="#6275B2" d="M182.898,61.909c-0.056-0.096-0.13-0.172-0.191-0.262c-0.38-1.021-1.075-1.931-2.103-2.533
	c-2.063-1.208-4.873-0.715-6.371,1.125c-0.639,0.473-0.967,0.871-1.522,1.668c-0.942,1.35-0.921,3.352-0.451,4.854
	c0.362,1.157,1.144,2.453,2.298,2.988c0.47,0.219,0.947,0.422,1.432,0.605c1.306,0.492,2.989,0.168,4.159-0.49
	c0.76-0.427,1.317-1.018,1.794-1.721C183.643,66.607,184.079,63.925,182.898,61.909z"/>
<path fill="#6275B2" d="M454.486,49.837c-8.143,27.327-35.615,40.999-56.996,57.569c3.182-12.729,9.18-33.453-4.605-37.42
	c-12.661-3.643-20.186,15.085-5.651,18.085c2.867,0.592,4.088-3.799,1.212-4.393c-6.205-1.282-6.225-7.256-0.576-9.475
	c6.779-2.665,8.7,6.95,8.791,11.335c0.191,9.235-3.691,18.025-4.943,27.066c-0.311,2.249,1.964,3.783,3.807,2.215
	c22.66-19.262,54.208-33.067,63.355-63.773C459.72,48.225,455.322,47.027,454.486,49.837z"/>
<path fill="#6275B2" d="M477.919,49.836c-8.142,27.326-35.614,40.999-56.995,57.569c3.182-12.73,9.18-33.453-4.606-37.421
	c-12.66-3.643-20.185,15.086-5.651,18.086c2.867,0.592,4.088-3.8,1.212-4.393c-6.205-1.282-6.224-7.256-0.576-9.475
	c6.78-2.665,8.7,6.95,8.792,11.335c0.191,9.235-3.692,18.025-4.943,27.065c-0.312,2.249,1.963,3.784,3.807,2.215
	c22.66-19.261,54.208-33.068,63.355-63.773C483.152,48.224,478.756,47.026,477.919,49.836z"/>
</svg>
